<svg xmlns="http://www.w3.org/2000/svg" viewBox="0 0 72 72"><defs><style>.cls-1{fill:#109cd7;}</style></defs><g id="Capa_2" data-name="Capa 2"><g id="Layer_1" data-name="Layer 1"><path class="cls-1" d="M36,0A36,36,0,1,0,72,36,36,36,0,0,0,36,0Zm0,69A33,33,0,1,1,69,36,33,33,0,0,1,36,69Z"/><path class="cls-1" d="M39.53,36,27.3,48.23a2.49,2.49,0,0,1-3.53,0h0a2.49,2.49,0,0,1,0-3.53L36,32.46Z"/><path class="cls-1" d="M36,32.46,48.23,44.7a2.49,2.49,0,0,1,0,3.53h0a2.49,2.49,0,0,1-3.53,0L32.46,36Z"/><path class="cls-1" d="M32.46,36,44.7,23.77a2.49,2.49,0,0,1,3.53,0h0a2.49,2.49,0,0,1,0,3.53L36,39.54Z"/><path class="cls-1" d="M36,39.54,23.77,27.3a2.49,2.49,0,0,1,0-3.53h0a2.49,2.49,0,0,1,3.53,0L39.54,36Z"/></g></g></svg>