<svg xmlns="http://www.w3.org/2000/svg" viewBox="0 0 132.92 108"><defs><style>.cls-1{fill:#fff;}</style></defs><g id="Capa_2" data-name="Capa 2"><g id="Layer_1" data-name="Layer 1"><g id="Icon-mail"><g id="Traced-2"><path class="cls-1" d="M116.32,108H16.62A16.7,16.7,0,0,1,0,91.4V16.62A16.7,16.7,0,0,1,16.6,0h99.71a16.69,16.69,0,0,1,16.61,16.6V91.38A16.69,16.69,0,0,1,116.32,108ZM16.63,8.31a8.35,8.35,0,0,0-8.32,8.32V91.38a8.35,8.35,0,0,0,8.32,8.31h99.68a8.36,8.36,0,0,0,8.31-8.32V16.62a8.36,8.36,0,0,0-8.32-8.31Z"/></g><g id="Traced-1"><path class="cls-1" d="M66.46,64.38a4.14,4.14,0,0,1-2.38-.75L1.77,20a4.16,4.16,0,1,1,4.77-6.81L66.46,55.16l59.93-41.95A4.15,4.15,0,0,1,131.15,20L68.84,63.63A4.14,4.14,0,0,1,66.46,64.38Z"/></g></g></g></g></svg>