<svg xmlns="http://www.w3.org/2000/svg" viewBox="0 0 62.92 62.9"><defs><style>.cls-1{fill:#fff;}</style></defs><g id="Capa_2" data-name="Capa 2"><g id="Layer_1" data-name="Layer 1"><path class="cls-1" d="M0,31.34A31.46,31.46,0,1,1,31.32,62.9,31.43,31.43,0,0,1,0,31.34ZM25.3,51.69h7.59V34.39c1.6,0,3,0,4.47,0,.4,0,1.08-.35,1.13-.63.42-2.08.7-4.19,1.06-6.48H32.88c0-1.55,0-2.93,0-4.32,0-2.68,1.16-3.9,3.87-4,1,0,1.92,0,3,0V12.79c-2.42,0-4.74-.12-7.05,0a6.84,6.84,0,0,0-6.29,4.37,18.51,18.51,0,0,0-1.07,5,47.71,47.71,0,0,0,0,5.09H18.9c0,2,.05,3.92,0,5.81,0,1,.3,1.39,1.35,1.34,1.65-.08,3.3,0,5.07,0Z"/></g></g></svg>