<svg xmlns="http://www.w3.org/2000/svg" viewBox="0 0 25.9 16.5"><defs><style>.cls-1{fill:#fff;}</style></defs><g id="Capa_2" data-name="Capa 2"><g id="Layer_1" data-name="Layer 1"><path class="cls-1" d="M.33,6.27h17.3a0,0,0,0,1,0,0v5a0,0,0,0,1,0,0H.33a2.5,2.5,0,0,1-2.5-2.5v0a2.5,2.5,0,0,1,2.5-2.5Z" transform="translate(-3.94 8.04) rotate(-45)"/><path class="cls-1" d="M10.77,6.27h17.3a0,0,0,0,1,0,0v5a0,0,0,0,1,0,0H10.77a2.5,2.5,0,0,1-2.5-2.5v0a2.5,2.5,0,0,1,2.5-2.5Z" transform="translate(24.81 27.81) rotate(-135)"/></g></g></svg>