<svg xmlns="http://www.w3.org/2000/svg" viewBox="0 0 62.88 62.92"><defs><style>.cls-1{fill:#fff;}</style></defs><g id="Capa_2" data-name="Capa 2"><g id="Layer_1" data-name="Layer 1"><path class="cls-1" d="M32.3,62.9C15.57,63.59.7,49.9,0,33.2A31.45,31.45,0,1,1,32.3,62.9ZM49.75,31.59c0-2.84,0-5.67,0-8.51a9.82,9.82,0,0,0-9.63-9.78c-5.76-.09-11.53-.08-17.29,0a9.81,9.81,0,0,0-9.7,9.86q0,8.37,0,16.73a9.88,9.88,0,0,0,9.91,10q8.36.07,16.73,0a9.87,9.87,0,0,0,10-10C49.78,37.07,49.75,34.33,49.75,31.59Z"/><path class="cls-1" d="M31.3,46.59c-2.7,0-5.4,0-8.1,0-3.74,0-6.64-2.49-6.77-6.21-.21-5.85-.23-11.72,0-17.57.13-3.83,3.12-6.29,7-6.3q8,0,15.92,0c4.32,0,7.2,2.82,7.24,7.13q.07,7.82,0,15.63c0,4.64-2.82,7.32-7.45,7.33Zm.24-5.06a10,10,0,0,0,9.92-10.12,10,10,0,1,0-20,.3A9.92,9.92,0,0,0,31.54,41.53ZM43.4,21.83a2.17,2.17,0,0,0-2.1-2.16,2.15,2.15,0,0,0-2.18,2.06,2.17,2.17,0,0,0,2.09,2.17A2.21,2.21,0,0,0,43.4,21.83Z"/><path class="cls-1" d="M38,31.65a6.56,6.56,0,0,1-6.63,6.49A6.55,6.55,0,1,1,38,31.65Z"/></g></g></svg>