<svg xmlns="http://www.w3.org/2000/svg" viewBox="0 0 62.91 62.84"><defs><style>.cls-1{fill:#fff;}</style></defs><g id="Capa_2" data-name="Capa 2"><g id="Layer_1" data-name="Layer 1"><path class="cls-1" d="M0,31.48A31.46,31.46,0,1,1,31.31,62.84,31.43,31.43,0,0,1,0,31.48ZM32,46.8V41c0-1.9-.07-3.81.07-5.71a4.27,4.27,0,0,1,4.41-4,4,4,0,0,1,4,4c.08,1,0,2,0,2.93v8.55h6.08a1.8,1.8,0,0,0,.14-.44c0-4.74.1-9.48,0-14.22a6.94,6.94,0,0,0-6.34-6.51c-3.06-.3-5.94,0-8.26,2.86l-.18-2.59h-6V46.8Zm-16.1-21V46.75h6.16V25.83ZM22.73,19a3.86,3.86,0,0,0-3.83-3.8,3.81,3.81,0,0,0,0,7.62A3.83,3.83,0,0,0,22.73,19Z"/></g></g></svg>