<svg xmlns="http://www.w3.org/2000/svg" viewBox="0 0 111.4 111.61"><defs><style>.cls-1{fill:#fff;}</style></defs><g id="Capa_2" data-name="Capa 2"><g id="Layer_1" data-name="Layer 1"><g id="Icon-phone-call"><path class="cls-1" d="M93.07,111.61q-.64,0-1.26-.06A103.2,103.2,0,0,1,47,95.65,101.65,101.65,0,0,1,16,64.56,103,103,0,0,1,.06,19.63,13.4,13.4,0,0,1,12.16,5.06c.4,0,.8,0,1.2,0H28.53a13.4,13.4,0,0,1,13.2,11.5,61.44,61.44,0,0,0,3.34,13.4,13.42,13.42,0,0,1-3,14.1l-4.54,4.54A77,77,0,0,0,62.85,73.9l4.52-4.54a13.43,13.43,0,0,1,14.12-3,61.53,61.53,0,0,0,13.35,3.32,13.37,13.37,0,0,1,11.55,13.53v15A13.39,13.39,0,0,1,93.07,111.61ZM28.49,11.7H13.36l-.6,0a6.7,6.7,0,0,0-6,7.26A96.32,96.32,0,0,0,21.57,61,95.22,95.22,0,0,0,50.64,90,96.4,96.4,0,0,0,92.48,104.9l.58,0a6.67,6.67,0,0,0,6.64-6.71V83.07a6.68,6.68,0,0,0-5.76-6.78A67.87,67.87,0,0,1,79.15,72.6a6.7,6.7,0,0,0-7.06,1.5l-6.33,6.35a3.35,3.35,0,0,1-4,.55A83.66,83.66,0,0,1,30.4,49.66a3.33,3.33,0,0,1,.55-4l6.37-6.36a6.68,6.68,0,0,0,1.48-7,68.1,68.1,0,0,1-3.69-14.85A6.7,6.7,0,0,0,28.49,11.7ZM88,46.54a3.34,3.34,0,0,1-3.27-2.7A21.65,21.65,0,0,0,67.56,26.68a3.35,3.35,0,0,1,1.28-6.57A28.32,28.32,0,0,1,91.29,42.56a3.34,3.34,0,0,1-2.64,3.92A3.57,3.57,0,0,1,88,46.54Zm20.06,0a3.34,3.34,0,0,1-3.32-3A41.57,41.57,0,0,0,67.83,6.66a3.34,3.34,0,0,1-3-3.69A3.39,3.39,0,0,1,68.57,0a48.2,48.2,0,0,1,42.81,42.76,3.34,3.34,0,0,1-2.95,3.69Z"/></g></g></g></svg>