<svg xmlns="http://www.w3.org/2000/svg" xmlns:xlink="http://www.w3.org/1999/xlink" viewBox="0 0 1143.18 601.67"><defs><style>.cls-1{fill:none;}.cls-2{clip-path:url(#clip-path);}.cls-3{fill:#b22234;}.cls-4{stroke:#fff;stroke-miterlimit:10;stroke-width:50px;}.cls-5{fill:#3c3b6e;}.cls-6{fill:#fff;}</style><clipPath id="clip-path" transform="translate(134.18 -0.16)"><circle class="cls-1" cx="300" cy="300" r="300"/></clipPath></defs><g id="Capa_2" data-name="Capa 2"><g id="Layer_1" data-name="Layer 1"><g class="cls-2"><path class="cls-3" d="M-134.18.16H1009V601.83H-134.18Z" transform="translate(134.18 -0.16)"/><path class="cls-4" d="M-134.18,69.58H1009m0,92.57H-134.18m0,92.56H1009m0,92.57H-134.18m0,92.56H1009m0,92.57H-134.18" transform="translate(134.18 -0.16)"/><path class="cls-5" d="M-134.18.16H323.09v324H-134.18Z" transform="translate(134.18 -0.16)"/><g id="d"><g id="c"><g id="e"><g id="b"><path id="a" class="cls-6" d="M-96.07,14l10.88,33.5-28.49-20.7h35.21L-107,47.54Z" transform="translate(134.18 -0.16)"/><path id="a-2" data-name="a" class="cls-6" d="M-96.07,78.84l10.88,33.49-28.49-20.7h35.21L-107,112.33Z" transform="translate(134.18 -0.16)"/><path id="a-3" data-name="a" class="cls-6" d="M-96.07,143.64l10.88,33.49-28.49-20.7h35.21L-107,177.13Z" transform="translate(134.18 -0.16)"/><path id="a-4" data-name="a" class="cls-6" d="M-96.07,208.43l10.88,33.49-28.49-20.7h35.21L-107,241.92Z" transform="translate(134.18 -0.16)"/></g><path id="a-5" data-name="a" class="cls-6" d="M-96.07,273.23l10.88,33.49L-113.68,286h35.21L-107,306.72Z" transform="translate(134.18 -0.16)"/></g><g id="b-2" data-name="b"><path id="a-6" data-name="a" class="cls-6" d="M-58,46.44l10.88,33.49-28.48-20.7h35.21l-28.49,20.7Z" transform="translate(134.18 -0.16)"/><path id="a-7" data-name="a" class="cls-6" d="M-58,111.24l10.88,33.49L-75.57,124h35.21l-28.49,20.7Z" transform="translate(134.18 -0.16)"/><path id="a-8" data-name="a" class="cls-6" d="M-58,176l10.88,33.49-28.48-20.69h35.21l-28.49,20.69Z" transform="translate(134.18 -0.16)"/><path id="a-9" data-name="a" class="cls-6" d="M-58,240.83l10.88,33.49-28.48-20.7h35.21l-28.49,20.7Z" transform="translate(134.18 -0.16)"/></g></g><g id="c-2" data-name="c"><g id="e-2" data-name="e"><g id="b-3" data-name="b"><path id="a-10" data-name="a" class="cls-6" d="M-19.86,14-9,47.54l-28.49-20.7H-2.26l-28.48,20.7Z" transform="translate(134.18 -0.16)"/><path id="a-11" data-name="a" class="cls-6" d="M-19.86,78.84-9,112.33l-28.49-20.7H-2.26l-28.48,20.7Z" transform="translate(134.18 -0.16)"/><path id="a-12" data-name="a" class="cls-6" d="M-19.86,143.64-9,177.13l-28.49-20.7H-2.26l-28.48,20.7Z" transform="translate(134.18 -0.16)"/><path id="a-13" data-name="a" class="cls-6" d="M-19.86,208.43-9,241.92l-28.49-20.7H-2.26l-28.48,20.7Z" transform="translate(134.18 -0.16)"/></g><path id="a-14" data-name="a" class="cls-6" d="M-19.86,273.23-9,306.72-37.47,286H-2.26l-28.48,20.7Z" transform="translate(134.18 -0.16)"/></g><g id="b-4" data-name="b"><path id="a-15" data-name="a" class="cls-6" d="M18.24,46.44,29.13,79.93.64,59.23H35.85L7.36,79.93Z" transform="translate(134.18 -0.16)"/><path id="a-16" data-name="a" class="cls-6" d="M18.24,111.24l10.89,33.49L.64,124H35.85L7.36,144.73Z" transform="translate(134.18 -0.16)"/><path id="a-17" data-name="a" class="cls-6" d="M18.24,176l10.89,33.49L.64,188.83H35.85L7.36,209.52Z" transform="translate(134.18 -0.16)"/><path id="a-18" data-name="a" class="cls-6" d="M18.24,240.83l10.89,33.49L.64,253.62H35.85L7.36,274.32Z" transform="translate(134.18 -0.16)"/></g></g></g><g id="d-2" data-name="d"><g id="c-3" data-name="c"><g id="e-3" data-name="e"><g id="b-5" data-name="b"><path id="a-19" data-name="a" class="cls-6" d="M56.35,14l10.88,33.5L38.74,26.84H74L45.47,47.54Z" transform="translate(134.18 -0.16)"/><path id="a-20" data-name="a" class="cls-6" d="M56.35,78.84l10.88,33.49L38.74,91.63H74l-28.49,20.7Z" transform="translate(134.18 -0.16)"/><path id="a-21" data-name="a" class="cls-6" d="M56.35,143.64l10.88,33.49-28.49-20.7H74l-28.49,20.7Z" transform="translate(134.18 -0.16)"/><path id="a-22" data-name="a" class="cls-6" d="M56.35,208.43l10.88,33.49-28.49-20.7H74l-28.49,20.7Z" transform="translate(134.18 -0.16)"/></g><path id="a-23" data-name="a" class="cls-6" d="M56.35,273.23l10.88,33.49L38.74,286H74l-28.49,20.7Z" transform="translate(134.18 -0.16)"/></g><g id="b-6" data-name="b"><path id="a-24" data-name="a" class="cls-6" d="M94.46,46.44l10.88,33.49L76.85,59.23h35.21L83.57,79.93Z" transform="translate(134.18 -0.16)"/><path id="a-25" data-name="a" class="cls-6" d="M94.46,111.24l10.88,33.49L76.85,124h35.21l-28.49,20.7Z" transform="translate(134.18 -0.16)"/><path id="a-26" data-name="a" class="cls-6" d="M94.46,176l10.88,33.49L76.85,188.83h35.21L83.57,209.52Z" transform="translate(134.18 -0.16)"/><path id="a-27" data-name="a" class="cls-6" d="M94.46,240.83l10.88,33.49-28.49-20.7h35.21l-28.49,20.7Z" transform="translate(134.18 -0.16)"/></g></g><g id="c-4" data-name="c"><g id="e-4" data-name="e"><g id="b-7" data-name="b"><path id="a-28" data-name="a" class="cls-6" d="M132.56,14l10.88,33.5L115,26.84h35.21l-28.49,20.7Z" transform="translate(134.18 -0.16)"/><path id="a-29" data-name="a" class="cls-6" d="M132.56,78.84l10.88,33.49L115,91.63h35.21l-28.49,20.7Z" transform="translate(134.18 -0.16)"/><path id="a-30" data-name="a" class="cls-6" d="M132.56,143.64l10.88,33.49L115,156.43h35.21l-28.49,20.7Z" transform="translate(134.18 -0.16)"/><path id="a-31" data-name="a" class="cls-6" d="M132.56,208.43l10.88,33.49L115,221.22h35.21l-28.49,20.7Z" transform="translate(134.18 -0.16)"/></g><path id="a-32" data-name="a" class="cls-6" d="M132.56,273.23l10.88,33.49L115,286h35.21l-28.49,20.7Z" transform="translate(134.18 -0.16)"/></g><g id="b-8" data-name="b"><path id="a-33" data-name="a" class="cls-6" d="M170.67,46.44l10.88,33.49-28.49-20.7h35.21l-28.48,20.7Z" transform="translate(134.18 -0.16)"/><path id="a-34" data-name="a" class="cls-6" d="M170.67,111.24l10.88,33.49L153.06,124h35.21l-28.48,20.7Z" transform="translate(134.18 -0.16)"/><path id="a-35" data-name="a" class="cls-6" d="M170.67,176l10.88,33.49-28.49-20.69h35.21l-28.48,20.69Z" transform="translate(134.18 -0.16)"/><path id="a-36" data-name="a" class="cls-6" d="M170.67,240.83l10.88,33.49-28.49-20.7h35.21l-28.48,20.7Z" transform="translate(134.18 -0.16)"/></g></g></g><g id="c-5" data-name="c"><g id="e-5" data-name="e"><g id="b-9" data-name="b"><path id="a-37" data-name="a" class="cls-6" d="M208.77,14l10.89,33.5-28.49-20.7h35.21l-28.49,20.7Z" transform="translate(134.18 -0.16)"/><path id="a-38" data-name="a" class="cls-6" d="M208.77,78.84l10.89,33.49-28.49-20.7h35.21l-28.49,20.7Z" transform="translate(134.18 -0.16)"/><path id="a-39" data-name="a" class="cls-6" d="M208.77,143.64l10.89,33.49-28.49-20.7h35.21l-28.49,20.7Z" transform="translate(134.18 -0.16)"/><path id="a-40" data-name="a" class="cls-6" d="M208.77,208.43l10.89,33.49-28.49-20.7h35.21l-28.49,20.7Z" transform="translate(134.18 -0.16)"/></g><path id="a-41" data-name="a" class="cls-6" d="M208.77,273.23l10.89,33.49L191.17,286h35.21l-28.49,20.7Z" transform="translate(134.18 -0.16)"/></g><g id="b-10" data-name="b"><path id="a-42" data-name="a" class="cls-6" d="M246.88,46.44l10.88,33.49-28.49-20.7h35.22L236,79.93Z" transform="translate(134.18 -0.16)"/><path id="a-43" data-name="a" class="cls-6" d="M246.88,111.24l10.88,33.49L229.27,124h35.22L236,144.73Z" transform="translate(134.18 -0.16)"/><path id="a-44" data-name="a" class="cls-6" d="M246.88,176l10.88,33.49-28.49-20.69h35.22L236,209.52Z" transform="translate(134.18 -0.16)"/><path id="a-45" data-name="a" class="cls-6" d="M246.88,240.83l10.88,33.49-28.49-20.7h35.22L236,274.32Z" transform="translate(134.18 -0.16)"/></g></g><g id="e-6" data-name="e"><g id="b-11" data-name="b"><path id="a-46" data-name="a" class="cls-6" d="M285,14l10.88,33.5-28.49-20.7h35.21L274.1,47.54Z" transform="translate(134.18 -0.16)"/><path id="a-47" data-name="a" class="cls-6" d="M285,78.84l10.88,33.49-28.49-20.7h35.21l-28.49,20.7Z" transform="translate(134.18 -0.16)"/><path id="a-48" data-name="a" class="cls-6" d="M285,143.64l10.88,33.49-28.49-20.7h35.21l-28.49,20.7Z" transform="translate(134.18 -0.16)"/><path id="a-49" data-name="a" class="cls-6" d="M285,208.43l10.88,33.49-28.49-20.7h35.21l-28.49,20.7Z" transform="translate(134.18 -0.16)"/></g><path id="a-50" data-name="a" class="cls-6" d="M285,273.23l10.88,33.49L267.38,286h35.21l-28.49,20.7Z" transform="translate(134.18 -0.16)"/></g></g></g></g></svg>