<svg xmlns="http://www.w3.org/2000/svg" viewBox="0 0 62.91 62.9"><defs><style>.cls-1{fill:#fff;}</style></defs><g id="Capa_2" data-name="Capa 2"><g id="Layer_1" data-name="Layer 1"><path class="cls-1" d="M0,31.36C.13,14,14.22-.13,31.35,0A31.44,31.44,0,0,1,62.91,31.58C62.73,49,48.59,63,31.47,62.89A31.45,31.45,0,0,1,0,31.36ZM14,49.83c2-.36,3.81-.65,5.59-1a12.19,12.19,0,0,1,6.79.2,15.91,15.91,0,0,0,10.16.05A18.27,18.27,0,0,0,48.69,25.4c-3.19-9.51-14.34-14.66-23.76-11A18.41,18.41,0,0,0,14.65,38.94,6.17,6.17,0,0,1,15,41.87C14.77,44.45,14.36,47,14,49.83Z"/><path class="cls-1" d="M17.52,46c1.73-4.17.08-7.62-.86-11.29C15.19,29,17,23.94,21.49,20.05S31.38,15.31,37,17.32c7.72,2.75,11.57,11.37,8.77,19.33-2.72,7.73-11.44,12.14-19.08,9.26-2.59-1-4.86-.57-7.3-.18Zm18.81-5c1.39-.3,3.38-1.8,3.74-3.16s-1-1.65-1.74-2.37a3.93,3.93,0,0,0-.44-.34,1.51,1.51,0,0,0-2.23.13,7.27,7.27,0,0,1-1.22,1.14,1.51,1.51,0,0,1-1.22.19A13.31,13.31,0,0,1,27,30.21c-.16-.37.12-.95.24-1.43a8.43,8.43,0,0,0,.62-2.4,7.61,7.61,0,0,0-.9-2.47c-.51-1.13-1.17-1.3-2.22-.65a4.66,4.66,0,0,0-2,5.59A16.7,16.7,0,0,0,31.19,39C32.82,39.8,34.61,40.32,36.33,41Z"/></g></g></svg>